<?xml version="1.0" encoding="utf-8"?>
<!-- Generator: Adobe Illustrator 23.0.1, SVG Export Plug-In . SVG Version: 6.00 Build 0)  -->
<svg version="1.1" id="Capa_1" xmlns="http://www.w3.org/2000/svg" xmlns:xlink="http://www.w3.org/1999/xlink" x="0px" y="0px"
	 viewBox="0 0 512 512" style="enable-background:new 0 0 512 512;" xml:space="preserve">
<g>
	<g>
		<path d="M406.987,176.549c-1.61-0.974-3.613-1.039-5.282-0.167l-142.34,74.503c-1.997,1.039-4.684,1.039-6.66,0.005
			L110.29,176.377c-2.278-1.191-5.188-0.636-6.841,1.596c-0.713,0.963-1.036,2.163-1.036,3.362l0,26.904
			c0,1.965,1.071,3.78,2.8,4.722l148.23,81.141c0.808,0.436,1.696,0.662,2.584,0.662c0.888,0,1.782-0.226,2.579-0.668l150.97-82.669
			v-30.275C409.587,179.268,408.602,177.524,406.987,176.549z"/>
		<path d="M462,0H50C22.386,0,0,22.386,0,50v412c0,27.614,22.386,50,50,50h412c27.614,0,50-22.386,50-50V50
			C512,22.386,489.614,0,462,0z M428.732,144.752v222.496H83.268V144.752H428.732z"/>
	</g>
</g>
</svg>
