<?xml version="1.0" encoding="utf-8"?>
<!-- Generator: Adobe Illustrator 23.0.1, SVG Export Plug-In . SVG Version: 6.00 Build 0)  -->
<svg version="1.1" id="Capa_1" xmlns="http://www.w3.org/2000/svg" xmlns:xlink="http://www.w3.org/1999/xlink" x="0px" y="0px"
	 viewBox="0 0 512 512" style="enable-background:new 0 0 512 512;" xml:space="preserve">
<g>
	<path d="M332.632,118.392c-50.848-9.673-102.415-9.673-153.275,0c-22.245,4.955-50.23,31.772-55.702,53.342
		c-9.1,41.737-9.1,84.047,0,125.784c5.471,21.571,33.457,48.388,55.702,53.342c0.006,0.001,0.011,0.002,0.017,0.003
		c0.991,0.194,1.713,1.053,1.713,2.063v61.141c0,3.056,3.73,4.561,5.853,2.348l29.042-29.806c0,0,23.142-23.757,27.304-28.028
		c0.407-0.418,0.968-0.644,1.55-0.628c29.321,0.812,58.674-1.556,87.796-7.092c22.245-4.955,50.242-31.772,55.702-53.342
		c9.111-41.737,9.111-84.047,0-125.784C382.873,150.164,354.888,123.347,332.632,118.392z M333.408,300.632
		c-4.449,9.446-10.922,17.305-20.261,22.321c-2.635,1.416-5.784,1.873-8.757,2.788c-3.42-1.038-6.679-1.736-9.706-2.992
		c-31.363-13.012-60.227-29.799-83.091-55.532c-13.002-14.633-23.179-31.154-31.781-48.637c-4.079-8.291-7.517-16.907-11.021-25.467
		c-3.196-7.806,1.511-15.87,6.467-21.751c4.65-5.52,10.634-9.744,17.114-12.857c5.058-2.43,10.047-1.029,13.741,3.258
		c7.986,9.269,15.321,19.011,21.261,29.755c3.652,6.608,2.65,14.686-3.969,19.183c-1.609,1.093-3.075,2.376-4.574,3.611
		c-1.314,1.082-2.551,2.175-3.452,3.64c-1.647,2.679-1.726,5.842-0.665,8.756c8.163,22.433,21.922,39.878,44.502,49.273
		c3.614,1.503,7.242,3.254,11.404,2.768c6.971-0.815,9.228-8.461,14.113-12.456c4.775-3.904,10.876-3.956,16.02-0.701
		c5.144,3.256,10.131,6.751,15.088,10.283c4.866,3.467,9.71,6.859,14.198,10.811C334.351,290.487,335.838,295.473,333.408,300.632z
		 M292.913,227.528c-1.947,0.035-1.182-0.003-0.442-0.025c-3.138-0.11-4.844-1.957-5.181-4.96c-0.246-2.194-0.44-4.417-0.964-6.552
		c-1.031-4.204-3.266-8.1-6.801-10.676c-1.669-1.217-3.561-2.104-5.543-2.675c-2.518-0.727-5.132-0.527-7.644-1.143
		c-2.728-0.667-4.237-2.877-3.809-5.436c0.39-2.329,2.656-4.147,5.201-3.962c15.905,1.148,27.272,9.371,28.895,28.096
		c0.115,1.321,0.249,2.717-0.044,3.98c-0.476,2.055-1.945,3.124-3.429,3.319C293.273,227.496,293.249,227.506,292.913,227.528z
		 M283.023,184.703c-4.88-2.39-10.158-3.875-15.508-4.76c-2.338-0.386-4.701-0.621-7.05-0.948c-2.847-0.395-4.366-2.21-4.232-5.015
		c0.126-2.629,2.047-4.52,4.912-4.358c9.415,0.535,18.508,2.569,26.878,7.001c17.021,9.014,26.743,23.241,29.581,42.239
		c0.129,0.861,0.335,1.713,0.4,2.577c0.162,2.132,0.262,4.268,0.426,7.08c-0.067,0.512-0.103,1.717-0.402,2.851
		c-1.089,4.119-7.333,4.634-8.771,0.477c-0.426-1.234-0.49-2.637-0.492-3.965c-0.015-8.689-1.903-17.369-6.285-24.929
		C297.976,195.187,291.093,188.655,283.023,184.703z M335.615,243.417c-3.288,0.039-4.768-2.712-4.981-5.661
		c-0.422-5.838-0.715-11.701-1.52-17.49c-4.247-30.56-28.615-55.842-59.032-61.267c-4.577-0.817-9.263-1.031-13.898-1.518
		c-2.931-0.308-6.77-0.485-7.419-4.129c-0.545-3.055,2.033-5.487,4.942-5.643c0.791-0.043,1.586-0.007,2.381-0.003
		c39.394,1.104,2.404,0.085,0.106,0.006c40.975,1.194,74.617,28.405,81.832,68.926c1.23,6.91,1.668,13.976,2.215,20.99
		C340.47,240.575,338.799,243.378,335.615,243.417z"/>
	<path d="M0,50v412c0,27.614,22.386,50,50,50h412c27.614,0,50-22.386,50-50V50c0-27.614-22.386-50-50-50H50C22.386,0,0,22.386,0,50z
		 M417.926,304.214l-0.101,0.404c-8.179,33.064-45.051,68.543-78.913,75.924l-0.382,0.079c-27.379,5.224-54.96,7.831-82.53,7.831
		c-8.115,0-16.23-0.253-24.34-0.707l-37.395,38.871c-9.257,9.639-25.536,3.078-25.536-10.28v-36.908
		c-32.597-9.309-66.724-43.157-74.565-74.811l-0.09-0.404c-10.111-46.175-10.111-93.001,0-139.175l0.09-0.404
		c8.19-33.064,45.062-68.543,78.913-75.924l0.393-0.079c54.758-10.448,110.291-10.448,165.06,0l0.382,0.079
		c33.861,7.381,70.734,42.86,78.913,75.924l0.101,0.404C428.038,211.213,428.038,258.04,417.926,304.214z"/>
</g>
</svg>
