<?xml version="1.0" encoding="utf-8"?>
<!-- Generator: Adobe Illustrator 23.0.1, SVG Export Plug-In . SVG Version: 6.00 Build 0)  -->
<svg version="1.1" id="Capa_2" xmlns="http://www.w3.org/2000/svg" xmlns:xlink="http://www.w3.org/1999/xlink" x="0px" y="0px"
	 viewBox="0 0 14.728 14.728" style="enable-background:new 0 0 14.728 14.728;" xml:space="preserve">
	<path
		fill="#FFFFFF"
		d="M8.778,7.364l5.657-5.657c0.39-0.39,0.39-1.024,0-1.414s-1.024-0.39-1.414,0L7.364,5.95L1.707,0.293
			c-0.39-0.39-1.024-0.39-1.414,0s-0.39,1.024,0,1.414L5.95,7.364l-5.657,5.657c-0.39,0.39-0.39,1.024,0,1.414s1.024,0.39,1.414,0
			l5.657-5.657l5.657,5.657c0.39,0.39,1.024,0.39,1.414,0s0.39-1.024,0-1.414L8.778,7.364z"/>
</svg>
