<?xml version="1.0" encoding="utf-8"?>
<!-- Generator: Adobe Illustrator 23.0.1, SVG Export Plug-In . SVG Version: 6.00 Build 0)  -->
<svg version="1.1" id="Capa_1" xmlns="http://www.w3.org/2000/svg" xmlns:xlink="http://www.w3.org/1999/xlink" x="0px" y="0px"
	 viewBox="0 0 512 512" style="enable-background:new 0 0 512 512;" xml:space="preserve">
<path d="M0,50v412c0,27.614,22.386,50,50,50h412c27.614,0,50-22.386,50-50V50c0-27.614-22.386-50-50-50H50C22.386,0,0,22.386,0,50z
	 M157.218,422.383c0,6.521-5.286,11.807-11.807,11.807H95.169c-6.521,0-11.807-5.286-11.807-11.807V208.044
	c0-6.521,5.286-11.807,11.807-11.807h50.243c6.521,0,11.807,5.286,11.807,11.807V422.383z M120.209,163.455
	c-22.815,0.462-42.866-18.595-42.861-42.903c0-23.576,19.416-42.81,43.15-42.791c23.45,0.019,42.791,19.388,42.74,42.955
	C163.182,145.392,142.703,163.992,120.209,163.455z M434.652,429.337c0,2.708-2.195,4.902-4.903,4.901l-64.209-0.016
	c-2.706-0.001-4.901-2.195-4.901-4.902V296.968c0-11.44-4.635-21.803-12.136-29.299c-7.773-7.777-18.626-12.475-30.572-12.116
	c-22.491,0.677-40.156,19.591-40.156,42.092v131.66c0,2.708-2.195,4.902-4.903,4.901l-64.05-0.016
	c-2.706-0.001-4.899-2.195-4.899-4.901v-228.15c0-2.707,2.195-4.902,4.902-4.902h62.684c2.707,0,4.902,2.195,4.902,4.902v26.309
	c0.006-0.011,0.253,0.02,0.673,0.084c1.211-2.191,2.53-4.313,3.955-6.357c13.064-18.748,34.783-31.015,59.366-31.015h12.886
	c44.935,0,81.362,36.427,81.362,81.362v157.814H434.652z"/>
</svg>
