<?xml version="1.0" encoding="utf-8"?>
<!-- Generator: Adobe Illustrator 23.0.1, SVG Export Plug-In . SVG Version: 6.00 Build 0)  -->
<svg
	version="1.1"
	xmlns="http://www.w3.org/2000/svg"
	xmlns:xlink="http://www.w3.org/1999/xlink">
	<defs>
		<style>
		.fill {
			fill: #ffd100;
			fill-rule: evenodd;
		}
		</style>

		<mask id="header">
			<path
				class="fill"
				d="M657.029,0.001 L765.003,1.001 L778.000,744.188 C778.000,744.188 754.174,925.100 510.000,961.999 C-42.792,1045.538 -216.245,481.393 344.000,299.000 C626.815,206.926 561.721,0.001 657.029,0.001 Z"/>
		</mask>

		<!--  -->
		<mask id="acquaintance">
			<path
				class="fill"
				d="M959.411,2665.34s-15.424,306.55,214.319,298.6,228.61-203.8,225.8-286.73c-3.31-97.86-107.76-292.15-265.13-234.13S959.411,2610.34,959.411,2665.34Z"
				transform="translate(-959.188 -2432.47)"/>
		</mask>
		<!--  -->

		<!-- Види сонячних електростанцій -->
		<mask id="type1">
			<path
				class="fill"
				d="M3.000,49.000 C9.819,27.968 34.710,8.082 106.000,1.000 C169.913,-5.350 219.726,21.027 222.000,60.000 C223.476,85.295 191.788,108.928 130.000,111.000 C49.791,113.689 -11.757,94.516 3.000,49.000 Z"/>
		</mask>

		<mask id="type2">

		</mask>

		<mask id="type3">
			<path
				class="fill"
				d="M221.000,56.000 C221.525,85.035 189.502,112.223 116.000,111.000 C42.498,109.776 -24.355,81.757 9.000,33.000 C32.865,-1.886 87.400,-2.479 131.000,2.000 C167.830,5.783 220.339,19.394 221.000,56.000 Z"/>
		</mask>

		<mask id="type1active">

		</mask>

		<mask id="type2active">
			<path
				class="fill"
				d="M2.234,178.656 C2.234,178.656 7.760,-10.858 254.698,0.496 C372.339,5.906 549.795,106.157 522.121,229.807 C494.448,353.458 396.804,408.811 272.496,407.994 C148.188,407.177 -14.822,352.359 2.234,178.656 Z"/>
		</mask>

		<mask id="type3active">

		</mask>
		<!---->

		<!-- Інформація -->
		<mask id="independence">
			<path
				fill="fill"
				d="M208.096,279.999 C208.096,279.999 -0.000,283.871 -0.000,120.612 C-0.000,-42.647 192.081,-1.555 241.602,24.677 C291.123,50.909 367.655,103.169 369.906,163.426 C372.157,223.682 337.900,279.999 208.096,279.999 Z"/>
		</mask>

		<mask id="earnings">
			<path
				class="fill"
				d="M9.169,131.549 C9.169,131.549 46.106,-19.833 198.472,2.188 C350.837,24.208 370.000,114.421 370.000,131.549 C370.000,148.678 370.000,269.647 169.216,279.391 C-31.568,289.136 -3.959,178.369 9.169,131.549 Z"/>
		</mask>

		<mask id="innovativeness">
			<path
				class="fill"
				d="M173.956,280.000 C348.101,280.309 392.306,174.376 364.166,98.647 C336.025,22.917 281.236,0.458 227.596,-0.001 C137.059,-0.775 37.672,24.217 8.711,93.665 C-20.808,164.451 22.383,279.730 173.956,280.000 Z"/>
		</mask>
		<!---->

		<!-- Зелений тариф -->
		<mask id="rate">
			<path
				class="fill"
				d="M273.000,540.000 C273.000,540.000 607.890,514.929 578.000,246.999 C548.110,-20.930 125.911,-99.968 29.656,159.999 C-66.598,419.967 90.400,561.378 273.000,540.000 "/>
		</mask>
		<!---->

		<!-- Комплект сонячних електростанцій -->
		<mask id="complect">
			<path
				class="fill"
				d="M1609.116,673.000 C1609.116,673.000 1786.129,446.179 1708.124,267.274 C1630.118,88.369 1231.338,-15.142 889.064,1.836 C88.401,41.553 0.000,170.384 0.000,170.384 C0.000,170.384 17.242,575.623 345.000,678.000 C800.422,820.253 1609.116,673.000 1609.116,673.000 Z"/>
		</mask>
		<!---->

		<!-- Приклади сонячних електростанцій -->
		<mask id="example">
			<path
				class="fill"
				d="M26.924,43.145 C39.332,22.219 121.512,-44.790 218.381,47.371 C315.249,139.532 425.210,83.790 426.968,159.344 C428.727,234.898 345.771,323.080 223.419,320.967 C101.067,318.853 -65.807,199.525 26.924,43.145 Z"/>
		</mask>
		<!---->

		<!-- Відгуки -->
		<mask id="review">
			<path
				class="fill"
				d="M277.405,155.177 C334.825,161.729 387.745,-1.798 564.000,1.000 C655.790,2.457 689.893,87.428 636.000,169.000 C568.390,271.334 547.541,313.986 482.580,372.265 C417.618,430.544 317.079,512.406 234.416,498.411 C182.174,489.566 142.833,425.095 146.485,397.690 C152.706,351.001 14.984,341.010 1.885,257.854 C-6.489,204.686 40.258,128.117 277.405,155.177 Z"/>
		</mask>
		<!---->

		<!-- Підключимо вас до зеленої енергії -->
		<mask id="connect">
			<path
				class="fill"
				d="M4.000,228.000 C4.000,228.000 23.969,-0.001 145.656,-0.001 C267.344,-0.001 355.000,28.000 342.000,204.000 C329.000,380.000 290.600,513.014 175.000,491.000 C59.400,468.985 -16.000,424.004 4.000,228.000 Z"/>
		</mask>
		<!---->

		<!-- Футер -->
		<mask id="map">
			<path
				class="fill"
				d="M41.000,45.000 C136.472,-45.885 465.210,11.086 432.000,132.000 C415.000,193.895 239.202,360.211 96.000,327.000 C5.000,305.895 -36.756,119.020 41.000,45.000 Z"/>
		</mask>
		<!---->

		<!-- Підказка -->
		<mask id="tooltip">
			<path
				class="fill"
				d="M26.000,64.000 C77.626,-23.286 281.586,-25.225 347.000,86.000 C412.414,197.225 316.186,281.273 173.000,287.000 C82.782,290.608 -57.901,205.853 26.000,64.000 Z"/>
		</mask>
		<!---->
	</defs>

</svg>
